<svg version='1.1' baseProfile='full' xmlns='http://www.w3.org/2000/svg' width='594.3664994955539' height='41.79767040662385'><g transform='translate(5, 5)'><g transform='scale(0.2631985134536894) translate(0.25, -50)'><g><g><polyline points="20,100 32,100 44,100 " style="fill: none; stroke: black;"></polyline></g></g><g><g><polyline points="64,100 76,100 88,100 " style="fill: none; stroke: black;"></polyline></g></g><g><g><polyline points="108,100 120,100 132,100 " style="fill: none; stroke: black;"></polyline></g></g><g><g><polyline points="152,100 164,100 176,100 " style="fill: none; stroke: black;"></polyline></g></g><g><g><polyline points="196,100 208,100 220,100 " style="fill: none; stroke: black;"></polyline></g></g><g><g><polyline points="240,100 252,100 264,100 " style="fill: none; stroke: black;"></polyline></g></g><g><g><polyline points="284,100 296,100 308,100 " style="fill: none; stroke: black;"></polyline></g></g><g><g><polyline points="328,100 340,100 352,100 " style="fill: none; stroke: black;"></polyline></g></g><g><g><polyline points="372,100 384,100 396,100 " style="fill: none; stroke: black;"></polyline></g></g><g><g><polyline points="416,100 428,100 440,100 " style="fill: none; stroke: black;"></polyline></g></g><g><g><polyline points="460,100 472,100 484,100 " style="fill: none; stroke: black;"></polyline></g></g><g><g><polyline points="504,100 516,100 528,100 " style="fill: none; stroke: black;"></polyline></g></g><g><g><polyline points="548,100 560,100 572,100 " style="fill: none; stroke: black;"></polyline></g></g><g><g><polyline points="592,100 604,100 616,100 " style="fill: none; stroke: black;"></polyline></g></g><g><g><polyline points="636,100 648,100 660,100 " style="fill: none; stroke: black;"></polyline></g></g><g><g><polyline points="680,100 692,100 704,100 " style="fill: none; stroke: black;"></polyline></g></g><g><g><polyline points="724,100 736,100 748,100 " style="fill: none; stroke: black;"></polyline></g></g><g><g><polyline points="768,100 780,100 792,100 " style="fill: none; stroke: black;"></polyline></g></g><g><g><polyline points="812,100 824,100 836,100 " style="fill: none; stroke: black;"></polyline></g></g><g><g><polyline points="856,100 868,100 880,100 " style="fill: none; stroke: black;"></polyline></g></g><g><g><polyline points="900,100 912,100 924,100 " style="fill: none; stroke: black;"></polyline></g></g><g><g><polyline points="944,100 956,100 968,100 " style="fill: none; stroke: black;"></polyline></g></g><g><g><polyline points="988,100 1000,100 1012,100 " style="fill: none; stroke: black;"></polyline></g></g><g><g><polyline points="1032,100 1044,100 1056,100 " style="fill: none; stroke: black;"></polyline></g></g><g><g><polyline points="1076,100 1088,100 1100,100 " style="fill: none; stroke: black;"></polyline></g></g><g><g><polyline points="1120,100 1132,100 1144,100 " style="fill: none; stroke: black;"></polyline></g></g><g><g><polyline points="1164,100 1176,100 1188,100 " style="fill: none; stroke: black;"></polyline></g></g><g><g><polyline points="1208,100 1220,100 1232,100 " style="fill: none; stroke: black;"></polyline></g></g><g><g><polyline points="1252,100 1264,100 1276,100 " style="fill: none; stroke: black;"></polyline></g></g><g><g><polyline points="1296,100 1308,100 1320,100 " style="fill: none; stroke: black;"></polyline></g></g><g><g><polyline points="1340,100 1352,100 1364,100 " style="fill: none; stroke: black;"></polyline></g></g><g><g><polyline points="1384,100 1396,100 1408,100 " style="fill: none; stroke: black;"></polyline></g></g><g><g><polyline points="1428,100 1440,100 1452,100 " style="fill: none; stroke: black;"></polyline></g></g><g><g><polyline points="1472,100 1484,100 1496,100 " style="fill: none; stroke: black;"></polyline></g></g><g><g><polyline points="1516,100 1528,100 1540,100 " style="fill: none; stroke: black;"></polyline></g></g><g><g><polyline points="1560,100 1572,100 1584,100 " style="fill: none; stroke: black;"></polyline></g></g><g><g><polyline points="1604,100 1616,100 1628,100 " style="fill: none; stroke: black;"></polyline></g></g><g><g><polyline points="1648,100 1660,100 1672,100 " style="fill: none; stroke: black;"></polyline></g></g><g><g><polyline points="1692,100 1704,100 1716,100 " style="fill: none; stroke: black;"></polyline></g></g><g><g><polyline points="1736,100 1748,100 1760,100 " style="fill: none; stroke: black;"></polyline></g></g><g><g><polyline points="1780,100 1792,100 1804,100 " style="fill: none; stroke: black;"></polyline></g></g><g><g><polyline points="1824,100 1836,100 1848,100 " style="fill: none; stroke: black;"></polyline></g></g><g><g><polyline points="1868,100 1880,100 1892,100 " style="fill: none; stroke: black;"></polyline></g></g><g><g><polyline points="1912,100 1924,100 1936,100 " style="fill: none; stroke: black;"></polyline></g></g><g><g><polyline points="1956,100 1968,100 1980,100 " style="fill: none; stroke: black;"></polyline></g></g><g><g><polyline points="2000,100 2012,100 2024,100 " style="fill: none; stroke: black;"></polyline></g></g><g><g><polyline points="2044,100 2056,100 2068,100 " style="fill: none; stroke: black;"></polyline></g></g><g><g><polyline points="2088,100 2100,100 2112,100 " style="fill: none; stroke: black;"></polyline></g></g><g><g><polyline points="2132,100 2144,100 2156,100 " style="fill: none; stroke: black;"></polyline></g></g><g><g><polyline points="2176,100 2188,100 2200,100 " style="fill: none; stroke: black;"></polyline></g></g><g></g><g><g transform="translate(0, 50)"><path d="M 0 0 L 20 0 V 100 L 0 100 V 0 z" style="fill: rgb(33, 150, 243); stroke: rgb(33, 150, 243); stroke-width: 4; stroke-linejoin: round;"></path><g></g><text text-anchor="middle" x="10" y="117" font-size="12">102</text></g></g><g><g transform="translate(44, 50)"><path d="M 0 13.711340206185568 L 20 13.711340206185568 V 86.28865979381443 L 0 86.28865979381443 V 13.711340206185568 z" style="fill: rgb(139, 195, 74); stroke: rgb(139, 195, 74); stroke-width: 4; stroke-linejoin: round;"></path><g></g><text text-anchor="middle" x="10" y="103.28865979381443" font-size="12">64</text></g></g><g><g transform="translate(88, 50)"><path d="M 0 13.711340206185568 L 20 13.711340206185568 V 86.28865979381443 L 0 86.28865979381443 V 13.711340206185568 z" style="fill: rgb(244, 67, 54); stroke: rgb(244, 67, 54); stroke-width: 4; stroke-linejoin: round;"></path><g></g><text text-anchor="middle" x="10" y="103.28865979381443" font-size="12">64</text></g></g><g><g transform="translate(132, 50)"><path d="M 0 13.711340206185568 L 20 13.711340206185568 V 86.28865979381443 L 0 86.28865979381443 V 13.711340206185568 z" style="fill: rgb(121, 85, 72); stroke: rgb(121, 85, 72); stroke-width: 4; stroke-linejoin: round;"></path><g></g><text text-anchor="middle" x="10" y="103.28865979381443" font-size="12">64</text></g></g><g><g transform="translate(176, 50)"><path d="M 0 13.711340206185568 L 20 13.711340206185568 V 86.28865979381443 L 0 86.28865979381443 V 13.711340206185568 z" style="fill: rgb(255, 235, 59); stroke: rgb(255, 235, 59); stroke-width: 4; stroke-linejoin: round;"></path><g></g><text text-anchor="middle" x="10" y="103.28865979381443" font-size="12">64</text></g></g><g><g transform="translate(220, 50)"><path d="M 0 13.711340206185568 L 20 13.711340206185568 V 86.28865979381443 L 0 86.28865979381443 V 13.711340206185568 z" style="fill: rgb(139, 195, 74); stroke: rgb(139, 195, 74); stroke-width: 4; stroke-linejoin: round;"></path><g></g><text text-anchor="middle" x="10" y="103.28865979381443" font-size="12">64</text></g></g><g><g transform="translate(264, 50)"><path d="M 0 13.711340206185568 L 20 13.711340206185568 V 86.28865979381443 L 0 86.28865979381443 V 13.711340206185568 z" style="fill: rgb(244, 67, 54); stroke: rgb(244, 67, 54); stroke-width: 4; stroke-linejoin: round;"></path><g></g><text text-anchor="middle" x="10" y="103.28865979381443" font-size="12">64</text></g></g><g><g transform="translate(308, 50)"><path d="M 0 13.711340206185568 L 20 13.711340206185568 V 86.28865979381443 L 0 86.28865979381443 V 13.711340206185568 z" style="fill: rgb(121, 85, 72); stroke: rgb(121, 85, 72); stroke-width: 4; stroke-linejoin: round;"></path><g></g><text text-anchor="middle" x="10" y="103.28865979381443" font-size="12">64</text></g></g><g><g transform="translate(352, 50)"><path d="M 0 13.711340206185568 L 20 13.711340206185568 V 86.28865979381443 L 0 86.28865979381443 V 13.711340206185568 z" style="fill: rgb(255, 235, 59); stroke: rgb(255, 235, 59); stroke-width: 4; stroke-linejoin: round;"></path><g></g><text text-anchor="middle" x="10" y="103.28865979381443" font-size="12">64</text></g></g><g><g transform="translate(396, 50)"><path d="M 0 13.711340206185568 L 20 13.711340206185568 V 86.28865979381443 L 0 86.28865979381443 V 13.711340206185568 z" style="fill: rgb(139, 195, 74); stroke: rgb(139, 195, 74); stroke-width: 4; stroke-linejoin: round;"></path><g></g><text text-anchor="middle" x="10" y="103.28865979381443" font-size="12">64</text></g></g><g><g transform="translate(440, 50)"><path d="M 0 13.711340206185568 L 20 13.711340206185568 V 86.28865979381443 L 0 86.28865979381443 V 13.711340206185568 z" style="fill: rgb(244, 67, 54); stroke: rgb(244, 67, 54); stroke-width: 4; stroke-linejoin: round;"></path><g></g><text text-anchor="middle" x="10" y="103.28865979381443" font-size="12">64</text></g></g><g><g transform="translate(484, 50)"><path d="M 0 13.711340206185568 L 20 13.711340206185568 V 86.28865979381443 L 0 86.28865979381443 V 13.711340206185568 z" style="fill: rgb(121, 85, 72); stroke: rgb(121, 85, 72); stroke-width: 4; stroke-linejoin: round;"></path><g></g><text text-anchor="middle" x="10" y="103.28865979381443" font-size="12">64</text></g></g><g><g transform="translate(528, 50)"><path d="M 0 13.711340206185568 L 20 13.711340206185568 V 86.28865979381443 L 0 86.28865979381443 V 13.711340206185568 z" style="fill: rgb(255, 235, 59); stroke: rgb(255, 235, 59); stroke-width: 4; stroke-linejoin: round;"></path><g></g><text text-anchor="middle" x="10" y="103.28865979381443" font-size="12">64</text></g></g><g><g transform="translate(572, 50)"><path d="M 0 13.711340206185568 L 20 13.711340206185568 V 86.28865979381443 L 0 86.28865979381443 V 13.711340206185568 z" style="fill: rgb(139, 195, 74); stroke: rgb(139, 195, 74); stroke-width: 4; stroke-linejoin: round;"></path><g></g><text text-anchor="middle" x="10" y="103.28865979381443" font-size="12">64</text></g></g><g><g transform="translate(616, 50)"><path d="M 0 13.711340206185568 L 20 13.711340206185568 V 86.28865979381443 L 0 86.28865979381443 V 13.711340206185568 z" style="fill: rgb(244, 67, 54); stroke: rgb(244, 67, 54); stroke-width: 4; stroke-linejoin: round;"></path><g></g><text text-anchor="middle" x="10" y="103.28865979381443" font-size="12">64</text></g></g><g><g transform="translate(660, 50)"><path d="M 0 13.711340206185568 L 20 13.711340206185568 V 86.28865979381443 L 0 86.28865979381443 V 13.711340206185568 z" style="fill: rgb(121, 85, 72); stroke: rgb(121, 85, 72); stroke-width: 4; stroke-linejoin: round;"></path><g></g><text text-anchor="middle" x="10" y="103.28865979381443" font-size="12">64</text></g></g><g><g transform="translate(704, 50)"><path d="M 0 13.711340206185568 L 20 13.711340206185568 V 86.28865979381443 L 0 86.28865979381443 V 13.711340206185568 z" style="fill: rgb(255, 235, 59); stroke: rgb(255, 235, 59); stroke-width: 4; stroke-linejoin: round;"></path><g></g><text text-anchor="middle" x="10" y="103.28865979381443" font-size="12">64</text></g></g><g><g transform="translate(748, 50)"><path d="M 0 13.711340206185568 L 20 13.711340206185568 V 86.28865979381443 L 0 86.28865979381443 V 13.711340206185568 z" style="fill: rgb(139, 195, 74); stroke: rgb(139, 195, 74); stroke-width: 4; stroke-linejoin: round;"></path><g></g><text text-anchor="middle" x="10" y="103.28865979381443" font-size="12">64</text></g></g><g><g transform="translate(792, 50)"><path d="M 0 13.711340206185568 L 20 13.711340206185568 V 86.28865979381443 L 0 86.28865979381443 V 13.711340206185568 z" style="fill: rgb(244, 67, 54); stroke: rgb(244, 67, 54); stroke-width: 4; stroke-linejoin: round;"></path><g></g><text text-anchor="middle" x="10" y="103.28865979381443" font-size="12">64</text></g></g><g><g transform="translate(836, 50)"><path d="M 0 13.711340206185568 L 20 13.711340206185568 V 86.28865979381443 L 0 86.28865979381443 V 13.711340206185568 z" style="fill: rgb(121, 85, 72); stroke: rgb(121, 85, 72); stroke-width: 4; stroke-linejoin: round;"></path><g></g><text text-anchor="middle" x="10" y="103.28865979381443" font-size="12">64</text></g></g><g><g transform="translate(880, 50)"><path d="M 0 13.711340206185568 L 20 13.711340206185568 V 86.28865979381443 L 0 86.28865979381443 V 13.711340206185568 z" style="fill: rgb(255, 235, 59); stroke: rgb(255, 235, 59); stroke-width: 4; stroke-linejoin: round;"></path><g></g><text text-anchor="middle" x="10" y="103.28865979381443" font-size="12">64</text></g></g><g><g transform="translate(924, 50)"><path d="M 0 13.711340206185568 L 20 13.711340206185568 V 86.28865979381443 L 0 86.28865979381443 V 13.711340206185568 z" style="fill: rgb(139, 195, 74); stroke: rgb(139, 195, 74); stroke-width: 4; stroke-linejoin: round;"></path><g></g><text text-anchor="middle" x="10" y="103.28865979381443" font-size="12">64</text></g></g><g><g transform="translate(968, 50)"><path d="M 0 13.711340206185568 L 20 13.711340206185568 V 86.28865979381443 L 0 86.28865979381443 V 13.711340206185568 z" style="fill: rgb(244, 67, 54); stroke: rgb(244, 67, 54); stroke-width: 4; stroke-linejoin: round;"></path><g></g><text text-anchor="middle" x="10" y="103.28865979381443" font-size="12">64</text></g></g><g><g transform="translate(1012, 50)"><path d="M 0 13.711340206185568 L 20 13.711340206185568 V 86.28865979381443 L 0 86.28865979381443 V 13.711340206185568 z" style="fill: rgb(121, 85, 72); stroke: rgb(121, 85, 72); stroke-width: 4; stroke-linejoin: round;"></path><g></g><text text-anchor="middle" x="10" y="103.28865979381443" font-size="12">64</text></g></g><g><g transform="translate(1056, 50)"><path d="M 0 13.711340206185568 L 20 13.711340206185568 V 86.28865979381443 L 0 86.28865979381443 V 13.711340206185568 z" style="fill: rgb(255, 235, 59); stroke: rgb(255, 235, 59); stroke-width: 4; stroke-linejoin: round;"></path><g></g><text text-anchor="middle" x="10" y="103.28865979381443" font-size="12">64</text></g></g><g><g transform="translate(1100, 50)"><path d="M 0 25.257731958762886 L 20 25.257731958762886 V 74.74226804123711 L 0 74.74226804123711 V 25.257731958762886 z" style="fill: rgb(139, 195, 74); stroke: rgb(139, 195, 74); stroke-width: 4; stroke-linejoin: round;"></path><g></g><text text-anchor="middle" x="10" y="91.74226804123711" font-size="12">32</text></g></g><g><g transform="translate(1144, 50)"><path d="M 0 25.257731958762886 L 20 25.257731958762886 V 74.74226804123711 L 0 74.74226804123711 V 25.257731958762886 z" style="fill: rgb(244, 67, 54); stroke: rgb(244, 67, 54); stroke-width: 4; stroke-linejoin: round;"></path><g></g><text text-anchor="middle" x="10" y="91.74226804123711" font-size="12">32</text></g></g><g><g transform="translate(1188, 50)"><path d="M 0 25.257731958762886 L 20 25.257731958762886 V 74.74226804123711 L 0 74.74226804123711 V 25.257731958762886 z" style="fill: rgb(121, 85, 72); stroke: rgb(121, 85, 72); stroke-width: 4; stroke-linejoin: round;"></path><g></g><text text-anchor="middle" x="10" y="91.74226804123711" font-size="12">32</text></g></g><g><g transform="translate(1232, 50)"><path d="M 0 25.257731958762886 L 20 25.257731958762886 V 74.74226804123711 L 0 74.74226804123711 V 25.257731958762886 z" style="fill: rgb(255, 235, 59); stroke: rgb(255, 235, 59); stroke-width: 4; stroke-linejoin: round;"></path><g></g><text text-anchor="middle" x="10" y="91.74226804123711" font-size="12">32</text></g></g><g><g transform="translate(1276, 50)"><path d="M 0 25.257731958762886 L 20 25.257731958762886 V 74.74226804123711 L 0 74.74226804123711 V 25.257731958762886 z" style="fill: rgb(139, 195, 74); stroke: rgb(139, 195, 74); stroke-width: 4; stroke-linejoin: round;"></path><g></g><text text-anchor="middle" x="10" y="91.74226804123711" font-size="12">32</text></g></g><g><g transform="translate(1320, 50)"><path d="M 0 25.257731958762886 L 20 25.257731958762886 V 74.74226804123711 L 0 74.74226804123711 V 25.257731958762886 z" style="fill: rgb(244, 67, 54); stroke: rgb(244, 67, 54); stroke-width: 4; stroke-linejoin: round;"></path><g></g><text text-anchor="middle" x="10" y="91.74226804123711" font-size="12">32</text></g></g><g><g transform="translate(1364, 50)"><path d="M 0 25.257731958762886 L 20 25.257731958762886 V 74.74226804123711 L 0 74.74226804123711 V 25.257731958762886 z" style="fill: rgb(121, 85, 72); stroke: rgb(121, 85, 72); stroke-width: 4; stroke-linejoin: round;"></path><g></g><text text-anchor="middle" x="10" y="91.74226804123711" font-size="12">32</text></g></g><g><g transform="translate(1408, 50)"><path d="M 0 25.257731958762886 L 20 25.257731958762886 V 74.74226804123711 L 0 74.74226804123711 V 25.257731958762886 z" style="fill: rgb(255, 235, 59); stroke: rgb(255, 235, 59); stroke-width: 4; stroke-linejoin: round;"></path><g></g><text text-anchor="middle" x="10" y="91.74226804123711" font-size="12">32</text></g></g><g><g transform="translate(1452, 50)"><path d="M 0 25.257731958762886 L 20 25.257731958762886 V 74.74226804123711 L 0 74.74226804123711 V 25.257731958762886 z" style="fill: rgb(139, 195, 74); stroke: rgb(139, 195, 74); stroke-width: 4; stroke-linejoin: round;"></path><g></g><text text-anchor="middle" x="10" y="91.74226804123711" font-size="12">32</text></g></g><g><g transform="translate(1496, 50)"><path d="M 0 25.257731958762886 L 20 25.257731958762886 V 74.74226804123711 L 0 74.74226804123711 V 25.257731958762886 z" style="fill: rgb(244, 67, 54); stroke: rgb(244, 67, 54); stroke-width: 4; stroke-linejoin: round;"></path><g></g><text text-anchor="middle" x="10" y="91.74226804123711" font-size="12">32</text></g></g><g><g transform="translate(1540, 50)"><path d="M 0 25.257731958762886 L 20 25.257731958762886 V 74.74226804123711 L 0 74.74226804123711 V 25.257731958762886 z" style="fill: rgb(121, 85, 72); stroke: rgb(121, 85, 72); stroke-width: 4; stroke-linejoin: round;"></path><g></g><text text-anchor="middle" x="10" y="91.74226804123711" font-size="12">32</text></g></g><g><g transform="translate(1584, 50)"><path d="M 0 25.257731958762886 L 20 25.257731958762886 V 74.74226804123711 L 0 74.74226804123711 V 25.257731958762886 z" style="fill: rgb(255, 235, 59); stroke: rgb(255, 235, 59); stroke-width: 4; stroke-linejoin: round;"></path><g></g><text text-anchor="middle" x="10" y="91.74226804123711" font-size="12">32</text></g></g><g><g transform="translate(1628, 50)"><path d="M 0 25.257731958762886 L 20 25.257731958762886 V 74.74226804123711 L 0 74.74226804123711 V 25.257731958762886 z" style="fill: rgb(139, 195, 74); stroke: rgb(139, 195, 74); stroke-width: 4; stroke-linejoin: round;"></path><g></g><text text-anchor="middle" x="10" y="91.74226804123711" font-size="12">32</text></g></g><g><g transform="translate(1672, 50)"><path d="M 0 25.257731958762886 L 20 25.257731958762886 V 74.74226804123711 L 0 74.74226804123711 V 25.257731958762886 z" style="fill: rgb(244, 67, 54); stroke: rgb(244, 67, 54); stroke-width: 4; stroke-linejoin: round;"></path><g></g><text text-anchor="middle" x="10" y="91.74226804123711" font-size="12">32</text></g></g><g><g transform="translate(1716, 50)"><path d="M 0 25.257731958762886 L 20 25.257731958762886 V 74.74226804123711 L 0 74.74226804123711 V 25.257731958762886 z" style="fill: rgb(121, 85, 72); stroke: rgb(121, 85, 72); stroke-width: 4; stroke-linejoin: round;"></path><g></g><text text-anchor="middle" x="10" y="91.74226804123711" font-size="12">32</text></g></g><g><g transform="translate(1760, 50)"><path d="M 0 25.257731958762886 L 20 25.257731958762886 V 74.74226804123711 L 0 74.74226804123711 V 25.257731958762886 z" style="fill: rgb(255, 235, 59); stroke: rgb(255, 235, 59); stroke-width: 4; stroke-linejoin: round;"></path><g></g><text text-anchor="middle" x="10" y="91.74226804123711" font-size="12">32</text></g></g><g><g transform="translate(1804, 50)"><path d="M 0 25.257731958762886 L 20 25.257731958762886 V 74.74226804123711 L 0 74.74226804123711 V 25.257731958762886 z" style="fill: rgb(139, 195, 74); stroke: rgb(139, 195, 74); stroke-width: 4; stroke-linejoin: round;"></path><g></g><text text-anchor="middle" x="10" y="91.74226804123711" font-size="12">32</text></g></g><g><g transform="translate(1848, 50)"><path d="M 0 25.257731958762886 L 20 25.257731958762886 V 74.74226804123711 L 0 74.74226804123711 V 25.257731958762886 z" style="fill: rgb(244, 67, 54); stroke: rgb(244, 67, 54); stroke-width: 4; stroke-linejoin: round;"></path><g></g><text text-anchor="middle" x="10" y="91.74226804123711" font-size="12">32</text></g></g><g><g transform="translate(1892, 50)"><path d="M 0 25.257731958762886 L 20 25.257731958762886 V 74.74226804123711 L 0 74.74226804123711 V 25.257731958762886 z" style="fill: rgb(121, 85, 72); stroke: rgb(121, 85, 72); stroke-width: 4; stroke-linejoin: round;"></path><g></g><text text-anchor="middle" x="10" y="91.74226804123711" font-size="12">32</text></g></g><g><g transform="translate(1936, 50)"><path d="M 0 25.257731958762886 L 20 25.257731958762886 V 74.74226804123711 L 0 74.74226804123711 V 25.257731958762886 z" style="fill: rgb(255, 235, 59); stroke: rgb(255, 235, 59); stroke-width: 4; stroke-linejoin: round;"></path><g></g><text text-anchor="middle" x="10" y="91.74226804123711" font-size="12">32</text></g></g><g><g transform="translate(1980, 50)"><path d="M 0 25.257731958762886 L 20 25.257731958762886 V 74.74226804123711 L 0 74.74226804123711 V 25.257731958762886 z" style="fill: rgb(139, 195, 74); stroke: rgb(139, 195, 74); stroke-width: 4; stroke-linejoin: round;"></path><g></g><text text-anchor="middle" x="10" y="91.74226804123711" font-size="12">32</text></g></g><g><g transform="translate(2024, 50)"><path d="M 0 25.257731958762886 L 20 25.257731958762886 V 74.74226804123711 L 0 74.74226804123711 V 25.257731958762886 z" style="fill: rgb(244, 67, 54); stroke: rgb(244, 67, 54); stroke-width: 4; stroke-linejoin: round;"></path><g></g><text text-anchor="middle" x="10" y="91.74226804123711" font-size="12">32</text></g></g><g><g transform="translate(2068, 50)"><path d="M 0 25.257731958762886 L 20 25.257731958762886 V 74.74226804123711 L 0 74.74226804123711 V 25.257731958762886 z" style="fill: rgb(121, 85, 72); stroke: rgb(121, 85, 72); stroke-width: 4; stroke-linejoin: round;"></path><g></g><text text-anchor="middle" x="10" y="91.74226804123711" font-size="12">32</text></g></g><g><g transform="translate(2112, 50)"><path d="M 0 25.257731958762886 L 20 25.257731958762886 V 74.74226804123711 L 0 74.74226804123711 V 25.257731958762886 z" style="fill: rgb(255, 235, 59); stroke: rgb(255, 235, 59); stroke-width: 4; stroke-linejoin: round;"></path><g></g><text text-anchor="middle" x="10" y="91.74226804123711" font-size="12">32</text></g></g><g><g transform="translate(2156, 50)"><path d="M 0 35 L 20 35 V 65 L 0 65 V 35 z" style="fill: rgb(139, 195, 74); stroke: rgb(139, 195, 74); stroke-width: 4; stroke-linejoin: round;"></path><g></g><text text-anchor="middle" x="10" y="82" font-size="12">5</text></g></g><g><g transform="translate(2200, 50)"><path d="M 0 35 L 20 35 V 65 L 0 65 V 35 z" style="fill: rgb(121, 85, 72); stroke: rgb(121, 85, 72); stroke-width: 4; stroke-linejoin: round;"></path><g></g><text text-anchor="middle" x="10" y="82" font-size="12">5</text></g></g></g></g></svg>